<svg xmlns="http://www.w3.org/2000/svg" data-name="Layer 1" viewBox="0 0 32 32"><path fill="#82c8ec" d="M18,.5H14a1,1,0,0,0-1,1v2a1,1,0,0,0,1,1h.879L15.5,6.121,17.121,4.5H18a1,1,0,0,0,1-1v-2A1,1,0,0,0,18,.5Z"/><line x1="15" x2="17" y1="2.5" y2="2.5" fill="none" stroke="#000" stroke-linecap="round" stroke-linejoin="round"/><path fill="#ffd9aa" d="M29.25,6a3.5,3.5,0,1,1-5.73-2.69,3.427,3.427,0,0,1,2.23-.81A3.5,3.5,0,0,1,29.25,6Z"/><path fill="#57565d" d="M29.25,6a3.481,3.481,0,0,1-1.29,2.71l-.09-.13A8.83,8.83,0,0,1,26.02,5.1a7.3,7.3,0,0,1-2.39-1.68l-.11-.11a3.427,3.427,0,0,1,2.23-.81A3.5,3.5,0,0,1,29.25,6Z"/><path fill="#57565d" d="M28.95,4.1a2.027,2.027,0,0,0,.8-1.6A2,2,0,0,0,25.82,2"/><polyline fill="none" stroke="#000" stroke-linecap="round" stroke-linejoin="round" points=".5 31.5 .5 24.5 .5 16.5"/><polyline fill="none" stroke="#000" stroke-linecap="round" stroke-linejoin="round" points="7.5 31.5 7.5 24.5 .5 24.5"/><polyline fill="none" stroke="#000" stroke-linecap="round" stroke-linejoin="round" points="31.5 31.5 31.5 24.5 31.5 16.5"/><polyline fill="none" stroke="#000" stroke-linecap="round" stroke-linejoin="round" points="24.5 31.5 24.5 24.5 31.5 24.5"/><path fill="#ffd9aa" d="M9.5,6A3.492,3.492,0,0,1,2.85,7.5H2.84A3.406,3.406,0,0,1,2.5,6,3.5,3.5,0,0,1,9.19,4.57,3.432,3.432,0,0,1,9.5,6Z"/><path fill="#57565d" d="M9.19,4.57,4.5,5.5v2H2.84A3.406,3.406,0,0,1,2.5,6,3.5,3.5,0,0,1,9.19,4.57Z"/><rect width="3" height="4" x="4.5" y="8.5" fill="#ffd9aa"/><rect width="3" height="4" x="24.5" y="8.5" fill="#ffd9aa"/><path fill="#55bb8c" d="M14.5,16A1.5,1.5,0,0,1,13,17.5H9.5v5.11h-7V13.5a2.015,2.015,0,0,1,2-2H6.8a1.986,1.986,0,0,1,1.25.44l3.2,2.56H13A1.5,1.5,0,0,1,14.5,16Z"/><path fill="#416fb3" d="M2.5,19.5v5h7V30A1.5,1.5,0,0,0,11,31.5h0A1.5,1.5,0,0,0,12.5,30V22.32a1,1,0,0,0-.8-.981L6,20.2Z"/><path fill="#ffd9aa" d="M14.5,16A1.5,1.5,0,0,1,13,17.5h-.5v-3H13A1.5,1.5,0,0,1,14.5,16Z"/><path fill="#fbde53" d="M17.5,16A1.5,1.5,0,0,0,19,17.5h3.5v5.11h7V13.5a2.015,2.015,0,0,0-2-2H25.2a1.986,1.986,0,0,0-1.25.44l-3.2,2.56H19A1.5,1.5,0,0,0,17.5,16Z"/><path fill="#416fb3" d="M29.5,19.5v5h-7V30A1.5,1.5,0,0,1,21,31.5h0A1.5,1.5,0,0,1,19.5,30V22.32a1,1,0,0,1,.8-.981L26,20.2Z"/><path fill="#ffd9aa" d="M17.5,16A1.5,1.5,0,0,0,19,17.5h.5v-3H19A1.5,1.5,0,0,0,17.5,16Z"/><path d="M15,3h2a.5.5,0,0,0,0-1H15a.5.5,0,0,0,0,1ZM14,5h.535l.5,1.3a.5.5,0,0,0,.82.175L17.328,5H18a1.5,1.5,0,0,0,1.5-1.5v-2A1.5,1.5,0,0,0,18,0H14a1.5,1.5,0,0,0-1.5,1.5v2A1.5,1.5,0,0,0,14,5Zm-.5-3.5A.5.5,0,0,1,14,1h4a.5.5,0,0,1,.5.5v2A.5.5,0,0,1,18,4h-.879a.5.5,0,0,0-.354.146L15.691,5.223l-.346-.9A.5.5,0,0,0,14.879,4H14a.5.5,0,0,1-.5-.5ZM31.5,16a.5.5,0,0,0-.5.5V24H30V13.5a2.5,2.5,0,0,0-2-2.449V9.5a.494.494,0,0,0-.035-.173,3.969,3.969,0,0,0,1.427-4.962,2.491,2.491,0,1,0-4.056-2.489.491.491,0,0,0-.009.167A3.975,3.975,0,0,0,24,9.579v1.73a2.491,2.491,0,0,0-.36.239L20.574,14H19a1.986,1.986,0,0,0-1.721,3H14.722A1.992,1.992,0,0,0,13,14H11.426L8.36,11.548A2.491,2.491,0,0,0,8,11.309V9.5a.474.474,0,0,0-.01-.051A3.94,3.94,0,0,0,9.614,4.314c-.006-.01-.01-.022-.017-.032A3.987,3.987,0,1,0,2.389,7.691L2.4,7.7A4,4,0,0,0,4.01,9.449.474.474,0,0,0,4,9.5v1.551A2.5,2.5,0,0,0,2,13.5V24H1V16.5a.5.5,0,0,0-1,0v15a.5.5,0,0,0,1,0V25H7v6.5a.5.5,0,0,0,1,0V25H9v5a2,2,0,0,0,4,0V22.32a1.5,1.5,0,0,0-1.206-1.471l-1.812-.362A.475.475,0,0,0,10,20.4V17.75l.2.15a.5.5,0,0,0,.3.1h5V31h-1a.5.5,0,0,0,0,1h3a.5.5,0,0,0,0-1h-1V18h5a.5.5,0,0,0,.3-.1l.2-.15V20.4a.477.477,0,0,0,.018.087l-1.811.362A1.5,1.5,0,0,0,19,22.32V30a2,2,0,0,0,4,0V25h1v6.5a.5.5,0,0,0,1,0V25h6v6.5a.5.5,0,0,0,1,0v-15A.5.5,0,0,0,31.5,16ZM3,6A2.991,2.991,0,0,1,8.4,4.217l-4,.793A.5.5,0,0,0,4,5.5V7H3.184A2.965,2.965,0,0,1,3,6Zm.78,2H4.5A.5.5,0,0,0,5,7.5V5.911l3.861-.766A2.958,2.958,0,0,1,9,6,2.989,2.989,0,0,1,3.78,8ZM7,9.858v1.159C6.933,11.012,6.866,11,6.8,11H5V9.858A3.954,3.954,0,0,0,6,10,3.954,3.954,0,0,0,7,9.858ZM11.6,21.83a.5.5,0,0,1,.4.49V30a1,1,0,0,1-2,0V24.5a.5.5,0,0,0-.5-.5H3V20.11ZM12,17H10.667L6.8,14.1a.5.5,0,1,0-.6.8L9,17H9v3.29l-6-1.2V13.5A1.5,1.5,0,0,1,4.5,12H6.8a1.5,1.5,0,0,1,.937.329l3.2,2.563a.5.5,0,0,0,.313.109H12Zm1,0V15h0a1,1,0,0,1,0,2Zm6,0a1,1,0,0,1,0-2h0ZM27.75,1a1.491,1.491,0,0,1,1.1,2.505,3.975,3.975,0,0,0-2.518-1.446A1.487,1.487,0,0,1,27.75,1Zm-2,2a3,3,0,0,1,3,3,2.972,2.972,0,0,1-.729,1.937,7.909,7.909,0,0,1-1.506-2.911.5.5,0,0,0-.336-.4,6.147,6.147,0,0,1-1.853-1.251A2.962,2.962,0,0,1,25.75,3Zm-3,3a2.977,2.977,0,0,1,.778-2,8.177,8.177,0,0,0,2.057,1.465,9.773,9.773,0,0,0,1.668,3.114A2.965,2.965,0,0,1,25.75,9,3,3,0,0,1,22.75,6ZM27,9.78V11H25.2c-.068,0-.134.012-.2.017V9.924a3.992,3.992,0,0,0,.75.076A3.947,3.947,0,0,0,27,9.78ZM29,24H22.5a.5.5,0,0,0-.5.5V30a1,1,0,0,1-2,0V22.32a.5.5,0,0,1,.4-.49L29,20.11Zm0-4.91-6,1.2V17h0l2.8-2.1a.5.5,0,0,0-.6-.8L21.333,17H20V15h.749a.5.5,0,0,0,.313-.109l3.2-2.562A1.5,1.5,0,0,1,25.2,12h2.3A1.5,1.5,0,0,1,29,13.5Z"/></svg>