<svg xmlns="http://www.w3.org/2000/svg" viewBox="0 0 64 64"><g data-name="Stationery-Office Supplies-Planning-Management-Business"><path fill="#e6e7e8" d="M54,11V57a4,4,0,0,1-4,4H14a4,4,0,0,1-4-4V7a4,4,0,0,1,4-4H46V9a2.006,2.006,0,0,0,2,2Z"/><path fill="#ee8700" d="M10,42,3,35V61H29Zm0,15H7V44.66l3,3L19.34,57Z"/><path fill="#d8d7da" d="M54,49v8H34l-3-2H29a2.006,2.006,0,0,1-2-2,2.015,2.015,0,0,1,2-2h2l3-2Z"/><rect width="3" height="8" x="52" y="47" fill="#ffa733"/><path fill="#e6e7e8" d="M57,47a4,4,0,0,1,0,8H55V47Z"/><path fill="#787680" d="M29,49v4H27a2.006,2.006,0,0,1-2-2,2.015,2.015,0,0,1,2-2Z"/><polygon fill="#898890" points="33 51 33 55 32 55 29 53 29 49 32 47 33 47 33 51"/><rect width="27" height="8" x="27" y="37" fill="#d8d7da"/><rect width="36" height="8" x="25" y="35" fill="#1e81ce"/><rect width="12" height="12" x="16" y="19" fill="#ffa733"/><path fill="#bcbec0" d="M54,11H48a2.006,2.006,0,0,1-2-2V3Z"/><rect width="19" height="4" x="33" y="51" fill="#00b39d"/><rect width="19" height="4" x="33" y="47" fill="#00ccb3"/><rect width="2" height="2" x="15" y="8" fill="#c6c5ca"/><rect width="6" height="2" x="19" y="8" fill="#c6c5ca"/><rect width="10" height="2" x="15" y="12" fill="#c6c5ca"/><rect width="2" height="5" x="42" y="38" fill="#1a6fb0"/><rect width="2" height="5" x="54" y="38" fill="#1a6fb0"/><rect width="2" height="3" x="46" y="40" fill="#1a6fb0"/><rect width="2" height="3" x="50" y="40" fill="#1a6fb0"/><rect width="2" height="5" x="30" y="38" fill="#1a6fb0"/><rect width="2" height="3" x="38" y="40" fill="#1a6fb0"/><rect width="2" height="3" x="34" y="40" fill="#1a6fb0"/><rect width="8" height="2" x="31" y="18" fill="#c6c5ca"/><rect width="8" height="2" x="41" y="18" fill="#c6c5ca"/><rect width="8" height="2" x="31" y="22" fill="#c6c5ca"/><rect width="8" height="2" x="41" y="22" fill="#c6c5ca"/><rect width="8" height="2" x="31" y="26" fill="#c6c5ca"/><rect width="8" height="2" x="41" y="26" fill="#c6c5ca"/><rect width="8" height="2" x="31" y="30" fill="#c6c5ca"/><rect width="8" height="2" x="41" y="30" fill="#c6c5ca"/><rect width="6" height="2" x="15" y="34" fill="#c6c5ca"/><rect width="6" height="2" x="15" y="38" fill="#c6c5ca"/><rect width="6" height="2" x="15" y="42" fill="#c6c5ca"/></g></svg>