<svg xmlns="http://www.w3.org/2000/svg" viewBox="0 0 64 64"><g data-name="Human Resource-Team-Collaborate-Network-Business"><polygon fill="#ffc477" points="35 48 35 51 33 52 31 52 29 51 29 48 35 48"/><path fill="#ffb655" d="M40 39H38v4h2a2 2 0 0 0 0-4zM24 39h2v4H24a2 2 0 0 1 0-4z"/><path fill="#3d9ae2" d="M30 54l.82.82L29 61H20V58.9a6 6 0 0 1 3.56-5.48L26.3 52.2 27 55zM44 58.9V61H35l-1.82-6.18L34 54l3 1 .7-2.8 2.74 1.22A6 6 0 0 1 44 58.9z"/><polygon fill="#1e81ce" points="31 52 30 54 27 55 26.3 52.2 29 51 31 52"/><polygon fill="#ff5023" points="34 54 33.18 54.82 32 56 30.82 54.82 30 54 31 52 33 52 34 54"/><polygon fill="#ff5023" points="33.18 54.82 35 61 29 61 30.82 54.82 32 56 33.18 54.82"/><polygon fill="#1e81ce" points="37.7 52.2 37 55 34 54 33 52 35 51 37.7 52.2"/><path fill="#ffb655" d="M35,48v2.32a6.958,6.958,0,0,1-6,0V48Z"/><path fill="#ffc477" d="M38.34,38a3.014,3.014,0,0,1-2.91-2.27L35,34a4,4,0,0,1-4,4H25v4a7,7,0,0,0,14,0V38Z"/><path fill="#57565c" d="M39 36v2h-.66a3.014 3.014 0 0 1-2.91-2.27L35 34a4 4 0 0 1-4 4H25V36a7 7 0 1 1 14 0zM7 35V33a3 3 0 0 1 6 0v2l-2-2L9.59 34.41A2.006 2.006 0 0 1 8.17 35z"/><path fill="#ff9811" d="M16,42.28V44H4V42.28a2,2,0,0,1,1.16-1.82l3.69-1.69a2.99,2.99,0,0,0,2.3,0l3.69,1.69A2,2,0,0,1,16,42.28Z"/><path fill="#ffc477" d="M13,35v1a2.993,2.993,0,0,1-5,2.23,1.2,1.2,0,0,1-.12-.11A2.993,2.993,0,0,1,7,36V35H8.17a2.006,2.006,0,0,0,1.42-.59L11,33Z"/><path fill="#ff9811" d="M60,42.28V44H48V42.28a2,2,0,0,1,1.16-1.82l3.69-1.69a2.99,2.99,0,0,0,2.3,0l3.69,1.69A2,2,0,0,1,60,42.28Z"/><path fill="#57565c" d="M54,30a3,3,0,0,1,3,3v2l-2-2-1.41,1.41a2.006,2.006,0,0,1-1.42.59H51V33a3,3,0,0,1,3-3Z"/><path fill="#ffc477" d="M57,35v1a2.993,2.993,0,0,1-5,2.23,1.2,1.2,0,0,1-.12-.11A2.993,2.993,0,0,1,51,36V35h1.17a2.006,2.006,0,0,0,1.42-.59L55,33Z"/><path fill="#00ccb3" d="M61,17.28V19H49V17.28a2,2,0,0,1,1.16-1.82l3.69-1.69a2.99,2.99,0,0,0,2.3,0l3.69,1.69A2,2,0,0,1,61,17.28Z"/><path fill="#57565c" d="M55,5a3,3,0,0,1,3,3v2L56,8,54.59,9.41a2.006,2.006,0,0,1-1.42.59H52V8a3,3,0,0,1,3-3Z"/><path fill="#ffc477" d="M58 10v1a2.993 2.993 0 0 1-5 2.23 1.2 1.2 0 0 1-.12-.11A2.993 2.993 0 0 1 52 11V10h1.17a2.006 2.006 0 0 0 1.42-.59L56 8zM35 8V9a2.993 2.993 0 0 1-5 2.23 1.2 1.2 0 0 1-.12-.11A2.993 2.993 0 0 1 29 9V8h1.17a2.006 2.006 0 0 0 1.42-.59L33 6z"/><path fill="#57565c" d="M29,8V6a3,3,0,0,1,6,0V8L33,6,31.59,7.41A2.006,2.006,0,0,1,30.17,8Z"/><path fill="#ff5023" d="M38,15.28V17H26V15.28a2,2,0,0,1,1.16-1.82l3.69-1.69a2.99,2.99,0,0,0,2.3,0l3.69,1.69A2,2,0,0,1,38,15.28Z"/><path fill="#00ccb3" d="M15,17.28V19H3V17.28a2,2,0,0,1,1.16-1.82l3.69-1.69a2.99,2.99,0,0,0,2.3,0l3.69,1.69A2,2,0,0,1,15,17.28Z"/><path fill="#ffc477" d="M7.85,13.77A2.921,2.921,0,0,1,7,13.23a1.2,1.2,0,0,1-.12-.11A2.993,2.993,0,0,1,6,11V10H7.17a2.006,2.006,0,0,0,1.42-.59L10,8l2,2v1a3,3,0,0,1-4.15,2.77Z"/><path fill="#57565c" d="M6,10V8a3,3,0,0,1,6,0v2L10,8,8.59,9.41A2.006,2.006,0,0,1,7.17,10Z"/><path fill="#ffa733" d="M53 27H43V25H53a1 1 0 0 0 1-1V22h2v2A3 3 0 0 1 53 27zM21 27H11a3 3 0 0 1-3-3V22h2v2a1 1 0 0 0 1 1H21z"/><rect width="2" height="6" x="31" y="20" fill="#ffa733"/><path fill="#ffa733" d="M45 52H43a3 3 0 0 1 3-3h6a1 1 0 0 0 1-1V47h2v1a3 3 0 0 1-3 3H46A1 1 0 0 0 45 52zM21 52H19a1 1 0 0 0-1-1H12a3 3 0 0 1-3-3V47h2v1a1 1 0 0 0 1 1h6A3 3 0 0 1 21 52z"/><rect width="2" height="2" x="28" y="40" fill="#ee8700"/><rect width="2" height="2" x="34" y="40" fill="#ee8700"/></g></svg>