<svg xmlns="http://www.w3.org/2000/svg" width="120" height="120" fill="none" viewBox="0 0 120 120"><path fill="#FBA" d="M60.4184 115.537C90.9512 115.537 115.703 90.785 115.703 60.2522C115.703 29.7194 90.9512 4.96772 60.4184 4.96772C29.8856 4.96772 5.13385 29.7194 5.13385 60.2522C5.13385 90.785 29.8856 115.537 60.4184 115.537Z"/><path fill="#193651" d="M59.626 0.9758C47.8674 0.975806 36.3727 4.46187 26.5948 10.9933C16.817 17.5248 9.19498 26.8085 4.69225 37.6708C0.189512 48.5332 -0.99182 60.4867 1.29758 72.0204C3.58697 83.554 9.24432 94.15 17.5545 102.469C25.8647 110.788 36.4547 116.457 47.9859 118.758C59.5171 121.06 71.4718 119.891 82.339 115.4C93.2062 110.909 102.498 103.297 109.04 93.5262C115.582 83.7553 119.08 72.2643 119.093 60.5057C119.084 44.7309 112.818 29.6037 101.67 18.4433C90.5213 7.28295 75.4008 1.00097 59.626 0.9758ZM29.275 60.5057C29.2474 54.5864 29.8528 48.6812 31.0809 42.8907H56.4262V78.089H31.0809C29.8512 72.3094 29.2458 66.4145 29.275 60.5057ZM62.6675 7.34382C73.3125 9.14968 82.4052 20.7135 86.6188 36.8078H62.6675V7.34382ZM56.6163 7.34382V36.8078H32.6332C36.7202 20.6818 45.9712 9.14968 56.6163 7.34382ZM56.6163 84.1085V113.572C45.9712 111.767 36.8786 100.203 32.6649 84.1085H56.6163ZM62.6675 113.541V84.0768H86.6188C82.0883 100.203 73.2492 111.735 62.6675 113.541V113.541ZM62.6675 78.0573V42.8273H88.0128C90.4253 54.4467 90.4253 66.4379 88.0128 78.0573H62.6675ZM94.3491 42.8273H109.588C111.577 48.5142 112.646 54.4819 112.756 60.5057C112.655 66.5096 111.585 72.4577 109.588 78.1207H94.2224C95.2129 72.3008 95.7215 66.4092 95.7431 60.5057C96.041 54.5712 95.5294 48.6237 94.2224 42.8273H94.3491ZM107.402 36.7761H93.1453C90.921 27.3337 86.5886 18.5172 80.4726 10.9872C92.1976 16.0987 101.698 25.2502 107.244 36.7761H107.402ZM39.128 11.4308C32.8923 18.8835 28.5453 27.7297 26.4553 37.2196H12.1986C17.5308 25.4928 27.1078 16.2216 39.0013 11.2723L39.128 11.4308ZM9.37891 43.1124H24.8712C22.8397 54.7679 22.8397 66.687 24.8712 78.3424H9.25218C5.1889 66.9506 5.1889 54.5043 9.25218 43.1124H9.37891ZM11.7867 84.2986H26.0435C28.2541 93.7459 32.588 102.565 38.7161 110.087C26.9769 104.799 17.4208 95.6234 11.66 84.1085L11.7867 84.2986ZM80.3775 109.644C86.6132 102.191 90.9602 93.345 93.0502 83.8551H107.307C101.875 95.5569 92.2056 104.762 80.2508 109.612L80.3775 109.644Z"/></svg>