<svg xmlns="http://www.w3.org/2000/svg" enable-background="new 0 0 1080 1080" viewBox="0 0 1080 1080"><path fill="#f0faff" d="M320.034,130.509c-27.668,12.099-55.173,26.851-74.525,50.033s-29.05,56.49-17.44,84.367
			c15.508,37.239,64.645,58.898,64.869,99.237c0.161,28.889-26.499,50.95-53.412,61.454s-56.71,14.289-81.185,29.638
			c-36.939,23.166-54.26,68.001-61.348,111.023c-7.359,44.67-4.377,95.522,27.23,127.935
			c39.284,40.285,104.248,35.738,159.857,27.15c74.209-11.461,148.092-24.928,221.964-38.394
			c161.935-29.518,323.869-59.037,485.804-88.555c17.365-3.165,35.427-6.627,49.536-17.233
			c28.016-21.062,30.389-64.541,14.105-95.578s-46.408-52.126-76.332-70.375c-29.924-18.25-61.519-35.51-83.93-62.459
			c-22.412-26.948-33.557-66.839-16.599-97.513c14.368-25.988,45.236-39.878,58.697-66.348
			c17.735-34.875-2.672-79.416-34.844-101.681C870.309,60.943,466.212,66.587,320.034,130.509z"/><circle cx="130.491" cy="649.518" r="130.491" fill="#b0e1ff"/><path fill="#cef" d="M130.49,907.386c-1.649,0-2.984-1.335-2.984-2.981V649.518c0-1.648,1.335-2.984,2.984-2.984
					c1.648,0,2.984,1.336,2.984,2.984v254.887C133.474,906.051,132.138,907.386,130.49,907.386z"/><path fill="#cef" d="M130.49 720.08c-.765 0-1.527-.291-2.11-.874l-36.543-36.542c-1.165-1.166-1.165-3.054 0-4.22 1.168-1.166 3.057-1.163 4.22 0l36.542 36.547c1.166 1.165 1.166 3.054 0 4.215C132.017 719.789 131.252 720.08 130.49 720.08zM130.49 754.012c-.765 0-1.527-.291-2.11-.874l-36.543-36.545c-1.165-1.165-1.165-3.054 0-4.215 1.168-1.166 3.057-1.161 4.22 0l36.542 36.545c1.166 1.166 1.166 3.055 0 4.215C132.017 753.721 131.252 754.012 130.49 754.012zM1027.51 620.032c30.724 16.66 51.587 49.194 51.587 86.601 0 54.371-44.076 98.447-98.447 98.447-41.946 0-77.766-26.234-91.946-63.189L1027.51 620.032z"/><circle cx="875.28" cy="586.611" r="155.853" fill="#b0e1ff"/><path fill="#cef" d="M875.279,894.598c-1.969,0-3.564-1.595-3.564-3.561V586.61c0-1.969,1.595-3.564,3.564-3.564
					c1.969,0,3.564,1.595,3.564,3.564v304.427C878.843,893.003,877.248,894.598,875.279,894.598z"/><path fill="#cef" d="M875.279 670.887c-.913 0-1.824-.348-2.52-1.044l-43.646-43.645c-1.391-1.392-1.391-3.648 0-5.04 1.395-1.392 3.651-1.389 5.04 0l43.645 43.651c1.392 1.392 1.392 3.648 0 5.034C877.103 670.539 876.19 670.887 875.279 670.887zM875.279 711.414c-.913 0-1.824-.348-2.52-1.043l-43.646-43.648c-1.391-1.391-1.391-3.648 0-5.034 1.395-1.392 3.651-1.386 5.04 0l43.645 43.648c1.392 1.392 1.392 3.648 0 5.034C877.103 711.066 876.19 711.414 875.279 711.414zM980.013 894.543c-1.739-.301-2.927-1.945-2.927-3.709V731.331c0-1.93 1.446-3.659 3.373-3.76 2.056-.107 3.755 1.526 3.755 3.556v159.909C984.213 893.212 982.262 894.932 980.013 894.543z"/><path fill="#cef" d="M980.65 754.465c-.911 0-1.824-.348-2.52-1.044-1.391-1.386-1.391-3.648 0-5.034l31.469-31.469c1.391-1.392 3.648-1.392 5.04 0 1.392 1.386 1.392 3.648 0 5.034l-31.469 31.469C982.473 754.117 981.56 754.465 980.65 754.465zM980.65 783.69c-.911 0-1.824-.348-2.52-1.044-1.391-1.386-1.391-3.648 0-5.034l31.469-31.469c1.391-1.392 3.648-1.392 5.04 0 1.392 1.386 1.392 3.648 0 5.034l-31.469 31.469C982.473 783.342 981.56 783.69 980.65 783.69z"/><path fill="#f2f2f2" d="M1066.523,1008.631H37.333c-7.412,0-13.477-6.065-13.477-13.477v-91.342
		c0-7.412,6.065-13.477,13.477-13.477h1029.19c7.412,0,13.477,6.065,13.477,13.477v91.342
		C1080,1002.566,1073.935,1008.631,1066.523,1008.631z"/><ellipse cx="573.762" cy="941.493" fill="#f2f2f2" rx="326.904" ry="13.858"/><g><path fill="#b08b60" d="M537.25,423.988c-36.977-5.651-93.996-5.447-96.528,1.491
			c-2.532,6.937,20.362,191.245,20.362,191.245l20.079,1.292c0,0,23.837-132.718,24.48-142.716
			c15.631,5.566,50.874,19.652,50.874,19.652L537.25,423.988z"/><path fill="#0b4870" d="M614.566,439.933c-5.311-2.692-77.316-15.944-77.316-15.944l-5.273,81.92
			c0,0,101.277,33.155,121.713,32.12c20.436-1.035,67.806,4.511,67.806,4.511l55.11-106.345L614.566,439.933z"/><path fill="#b08b60" d="M720.707 301.561c36.328 6.269 168.787 70.318 203.161 136.973-12.419 12.733-28.111 16.234-28.111 16.234s-1.992-29.127-8.244-32.107c-1.944 10.186-2.621 15.935-2.621 15.935l-5.09 3.251c0 0-3.349-28.849-7.416-31.388-4.066-2.539-102.674-65.816-140.701-71.517C693.659 333.241 720.707 301.561 720.707 301.561zM519.993 278.484c-50.84-11.678-184.351-13.299-203.965-16.613-20.57-4.401-45.798-1.629-45.798-1.629s-2.752 13.092-.928 16.628c1.823 3.536 8.603 14.306 17.367 16.237 14.463-5.255 30.911-7.548 30.911-7.548l-8.872 10.368 1.242 7.259 16.503-17.398c0 0 103.551 6.172 165.189 23.138C547.504 310.261 519.993 278.484 519.993 278.484z"/><path fill="#ffbe55" d="M629.373,290.703c66.731-0.731,107.886,6.944,107.886,6.944l-3.038,47.198l-48.189,1.207
			c0,0,35.097,68.322,26.752,108.716c-37.781,29.164-76.75,33.836-96.462,4.562C596.609,430.056,545.5,342.751,545.5,342.751
			l-64.757-31.455l17.779-41.94l83.172,13.1L629.373,290.703z"/><path fill="#0a3249" d="M646.639,215.562c6.548,0.696,15.091,4.543,16.593,15.353s-10.148,59.507-25.441,62.369
				c-15.293,2.862-19.168,1.581-19.168,1.581L646.639,215.562z"/><path fill="#b08b60" d="M572.46,219.932c-6.36,16.391-9.66,53.477-8.426,69.53c0.304,3.957,3.403,7.124,7.35,7.543
				c24.312,2.583,47.064,4.532,60.986-12.344c15.058-18.254,10.251-43.126,6.545-51.908
				C635.208,223.971,609.541,191.348,572.46,219.932z"/><path fill="#0a3249" d="M630.086,245.473c0.447,9.64-1.784,27.712-1.784,27.712l6.381,0.411
				c0,0,9.33-12.215,10.599-15.337c1.269-3.122,2.227-18.012-1.685-23.603S630.086,245.473,630.086,245.473z"/><path fill="#0a3249" d="M630.685,246.311c-8.613-0.759-62.129-16.512-63.194-28.625s12.158-30.423,28.47-32.931
				c-2.374,2.858-4.132,4.661-4.87,7.625c9.004-3.8,14.148-2.922,14.148-2.922s-5.372,2.665-5.223,4.591
				c2.841,2.646,45.475,4.843,48.698,20.106s6.511,45.565-7.968,51.213C633.378,249.847,630.685,246.311,630.685,246.311z"/><path fill="#b08b60" d="M640.461,265.771c2.828-3.665,13.084-5.38,12.706-1.192c-0.378,4.188-6.77,21.379-19.072,21.236
				C621.793,285.67,640.461,265.771,640.461,265.771z"/><ellipse cx="613.356" cy="376.677" fill="#ffbe55" rx="19.975" ry="36.55" transform="rotate(-31.486 613.342 376.666)"/><path fill="#0e538c" d="M461.084,616.724c0,0-54.55-16.892-59.206-17.781c-4.656-0.889,8.929,16.894,11.138,19.187
			s73.609,27.724,73.609,27.724l-5.463-27.837L461.084,616.724z"/><path fill="#b08b60" d="M797.298,449.028c-1.793-9.506-11.344-15.318-20.693-12.833
			c-20.519,5.455-41.09,26.823-44.943,39.569c-4.646,15.371-36.217,189.369-36.217,189.369l21.467,1.382
			C716.913,666.515,807.411,502.627,797.298,449.028z"/><path fill="#0e538c" d="M706.95,660.035c14.954-2.768,52.21-4.357,55.67-6.555c3.46-2.197,34.231-6.509,30.78,1.981
			c-3.451,8.49-38.636,21.23-56.905,26.831c-18.269,5.6-47.408,7.113-47.408,7.113l6.734-30.087L706.95,660.035z"/><path fill="#ffbe55" d="M353.383,560.802c6.777,7.626,13.498,15.197,20.358,22.608c1.736,1.834,3.419,3.711,5.197,5.502
			c1.741,1.822,3.439,3.681,5.21,5.47c3.516,3.601,7.077,7.149,10.658,10.658c3.587,3.503,7.215,6.951,10.892,10.306
			c1.838,1.668,3.683,3.345,5.553,4.931c0.934,0.797,1.854,1.624,2.787,2.378c0.931,0.78,1.86,1.549,2.768,2.241
			c0.458,0.361,0.924,0.73,1.314,0.992c0.365,0.264,0.99,0.707,0.826,0.573l-0.006,0.023c-0.027,0.002,0.049,0.022,0.107,0.037
			l0.173,0.048l0.69,0.197l1.369,0.414l7.076,2.158l14.632,4.389l58.695,17.396l29.326,8.797l29.301,8.88l117.035,36.075
			l29.233,8.991l6.993,2.105l0.806,0.241c0.237,0.065,0.627,0.208,0.659,0.167c0.254-0.007,0.259,0.066,0.969,0.078l1.664,0.076
			l1.82,0.021c4.893,0.049,9.973-0.115,15.023-0.211l60.943-1.593l0.034-0.001c1.929-0.05,3.534,1.473,3.585,3.402
			c0.045,1.714-1.153,3.172-2.774,3.511c-10.14,2.132-20.307,3.611-30.494,4.891c-5.094,0.643-10.196,1.172-15.302,1.709
			c-5.108,0.5-10.227,0.912-15.359,1.315c-5.146,0.383-10.267,0.638-15.581,0.787l-2.007,0.042l-2.162-0.026
			c-0.569,0.022-1.829-0.096-2.845-0.225c-0.612-0.058-0.821-0.167-1.202-0.253l-1.037-0.275l-2.074-0.556l-1.946-0.54l-3.697-1.046
			l-29.478-8.44c-39.264-11.26-78.43-22.805-117.581-34.416l-29.327-8.826l-29.293-8.944l-58.487-18.263l-14.631-4.632l-3.666-1.174
			l-1.833-0.587l-0.916-0.293l-1.116-0.376l-2.264-0.79l-1.127-0.405l-0.281-0.103c-0.094-0.035-0.173-0.055-0.33-0.15l-0.822-0.477
			c-1.279-0.76-1.647-1.125-2.314-1.609c-0.649-0.478-1.171-0.918-1.704-1.361c-4.267-3.528-8-7.127-11.732-10.832
			c-1.85-1.848-3.668-3.726-5.441-5.632c-1.801-1.886-3.545-3.814-5.272-5.759c-3.472-3.871-6.79-7.866-10.038-11.909
			c-1.642-2.006-3.206-4.075-4.809-6.108c-1.585-2.048-3.071-4.176-4.606-6.258c-6.067-8.389-11.699-17.085-16.72-26.12
			c-0.755-1.359-0.266-3.072,1.093-3.827c1.174-0.652,2.613-0.375,3.47,0.589L353.383,560.802z"/><circle cx="434.168" cy="667.771" r="17.3" fill="#ffbe55"/><circle cx="434.168" cy="667.771" r="7.942" fill="#ffbe55"/><circle cx="679.973" cy="741.988" r="17.3" fill="#ffbe55"/><circle cx="679.973" cy="741.988" r="7.942" fill="#ffbe55"/></g></svg>