<svg xmlns="http://www.w3.org/2000/svg" xmlns:xlink="http://www.w3.org/1999/xlink" data-name="Layer 1" viewBox="0 0 652.17 595.4"><defs><linearGradient id="a" x1="236.31" x2="311.94" y1="420.16" y2="420.16" gradientUnits="userSpaceOnUse"><stop offset="0" stop-color="#68e1fd" stop-opacity="0"/><stop offset=".02" stop-color="#66daf6" stop-opacity=".04"/><stop offset=".18" stop-color="#58a1bc" stop-opacity=".39"/><stop offset=".35" stop-color="#4d758f" stop-opacity=".66"/><stop offset=".53" stop-color="#45566f" stop-opacity=".85"/><stop offset=".73" stop-color="#40435c" stop-opacity=".96"/><stop offset=".99" stop-color="#3f3d56"/></linearGradient><linearGradient id="d" x1="341.62" x2="252.55" y1="372.95" y2="474.74" gradientUnits="userSpaceOnUse"><stop offset=".11" stop-color="#68e1fd" stop-opacity="0"/><stop offset=".13" stop-color="#66daf6" stop-opacity=".04"/><stop offset=".27" stop-color="#58a1bc" stop-opacity=".39"/><stop offset=".42" stop-color="#4d758f" stop-opacity=".66"/><stop offset=".58" stop-color="#45566f" stop-opacity=".85"/><stop offset=".76" stop-color="#40435c" stop-opacity=".96"/><stop offset=".99" stop-color="#3f3d56"/></linearGradient><linearGradient id="e" x1="501.73" x2="645.34" y1="327.15" y2="360.26" xlink:href="#a"/><linearGradient id="c" x1="618" x2="557.65" y1="310.15" y2="275.02" gradientUnits="userSpaceOnUse"><stop offset=".36" stop-color="#00272e"/><stop offset="1" stop-color="#69b9eb" stop-opacity="0"/></linearGradient><linearGradient id="b" x1="594.28" x2="616.04" y1="219.41" y2="219.41" gradientUnits="userSpaceOnUse"><stop offset="0" stop-color="#ecc4d7"/><stop offset=".42" stop-color="#efd4d1"/><stop offset="1" stop-color="#f2eac9"/></linearGradient><linearGradient id="f" x1="608.57" x2="570.2" y1="203.63" y2="267.47" xlink:href="#b"/><linearGradient id="g" x1="574.69" x2="620.78" y1="189.21" y2="189.21" xlink:href="#b"/><linearGradient id="h" x1="469.29" x2="517.24" y1="300.55" y2="300.55" xlink:href="#b"/><linearGradient id="i" x1="593.35" x2="685.01" y1="347.58" y2="391.37" xlink:href="#a"/><linearGradient id="j" x1="592.55" x2="603.28" y1="377.18" y2="377.18" xlink:href="#b"/><linearGradient id="k" x1="572.21" x2="588.12" y1="400.74" y2="400.74" xlink:href="#b"/><linearGradient id="l" x1="689.69" x2="578.93" y1="340.63" y2="283.34" xlink:href="#c"/><linearGradient id="m" x1="510.36" x2="559.44" y1="354.99" y2="354.99" xlink:href="#b"/><linearGradient id="n" x1="372.6" x2="408.04" y1="406.61" y2="406.61" xlink:href="#b"/><linearGradient id="o" x1="188.42" x2="270.92" y1="359.1" y2="369.03" xlink:href="#c"/><linearGradient id="p" x1="252.52" x2="302.6" y1="262.49" y2="262.49" xlink:href="#b"/><linearGradient id="q" x1="224.92" x2="328.3" y1="435.38" y2="363.07" xlink:href="#c"/><linearGradient id="r" x1="251.27" x2="270.92" y1="486.11" y2="486.11" xlink:href="#b"/><linearGradient id="s" x1="413.15" x2="352.71" y1="245.1" y2="242.9" xlink:href="#a"/><linearGradient id="t" x1="406.6" x2="413.39" y1="217.65" y2="317.47" xlink:href="#a"/><linearGradient id="u" x1="408.45" x2="415.24" y1="217.53" y2="317.34" xlink:href="#a"/></defs><path fill="#68e1fd" d="M738.09,360.77a173.8,173.8,0,0,1-4.21,38C709,510.29,576.38,595.4,416.55,595.4c-65.94,0-127.24-14.49-178.25-39.33-35.2-17.14-65.51-39.21-89.06-64.87A169.11,169.11,0,0,1,123,459.36C55.37,354.41,80.73,167.14,195.15,168.7A288.2,288.2,0,0,0,236,166.61c32.15-4.15,51.65-13.87,63.46-24.41a59.64,59.64,0,0,0,7.89-8.52A106.13,106.13,0,0,1,375,92.75c238.66-38.23,325.57,80.75,352.51,181A302.59,302.59,0,0,1,738,356.7C738.07,358.05,738.09,359.41,738.09,360.77Z" opacity=".18" transform="translate(-85.91)"/><path fill="#000405" d="M257.69,513,130.35,470S83.49,411.87,86.1,314.11l189.5,77.57S358,368,407.09,365.63s266.72-25.22,266.72-25.22,42,48.15,23.32,62.88S544,420.5,544,420.5l-93.5-54.8-78.64,60.76L311.94,483Z" opacity=".05" transform="translate(-85.91)"/><path fill="#3f3d56" d="M466.45,297.14l-2,5.08s6,5.31,2,7.59C466.45,309.81,487.27,308.52,466.45,297.14Z" transform="translate(-85.91)"/><path fill="#333" d="M228.49,461.65l-2.42,6.86,19.87,9.29s18.44,2.32,24.11-2.54a24.33,24.33,0,0,0,7.25-11.37Z" transform="translate(-85.91)"/><path fill="#68e1fd" d="M280.52,397.29s23.38-.41,30.22,8.08S293,439,293,439L236.31,443Z" transform="translate(-85.91)"/><path fill="url(#a)" d="M280.52,397.29s23.38-.41,30.22,8.08S293,439,293,439L236.31,443Z" transform="translate(-85.91)" style="isolation:isolate"/><path fill="#68e1fd" d="M279.68,433.74s49.12,4.43,57.66,7.58c16.14,6.07,11.34,28.75,4.05,31.17-6.09,2.05-52.41,19-67.22,24.43a5.1,5.1,0,0,1-6.43-2.81L262.61,482a5.11,5.11,0,0,1,3.25-6.9L295,466.43s-43.26,4.36-52,2.42c-19.35-4.24-38.43-29-28.27-50.62S279.68,433.74,279.68,433.74Z" transform="translate(-85.91)"/><path fill="url(#d)" d="M279.68,433.74s49.12,4.43,57.66,7.58c16.14,6.07,11.34,28.75,4.05,31.17-6.09,2.05-52.41,19-67.22,24.43a5.1,5.1,0,0,1-6.43-2.81L262.61,482a5.11,5.11,0,0,1,3.25-6.9L295,466.43s-43.26,4.36-52,2.42c-19.35-4.24-38.43-29-28.27-50.62S279.68,433.74,279.68,433.74Z" transform="translate(-85.91)" style="isolation:isolate"/><path fill="#3f3d56" d="M408,311.51l-2.27,8.88,11.64,10.31s-3.33,0-6,5.2l-1.06,11.37s7.82,16.92,29.4,2.13l35,30.94L552.34,353,554,342.42Z" transform="translate(-85.91)"/><path fill="#68e1fd" d="M618.46,320l-38.62-15.17a16.94,16.94,0,0,0-15.68-.46,13.2,13.2,0,0,0-7.55,11.38c-1.33,14.6,6.53,81.8,6.53,81.8a39.43,39.43,0,0,0,9,2.31,18.84,18.84,0,0,0,15.49-3.79l.75-50.55s43.53,26.89,59.06,24.65c17.38-2.5,45.34-16.76,26.45-49.83S618.46,320,618.46,320Z" transform="translate(-85.91)"/><path fill="url(#e)" d="M618.46,320l-38.62-15.17a16.94,16.94,0,0,0-15.68-.46,13.2,13.2,0,0,0-7.55,11.38c-1.33,14.6,6.53,81.8,6.53,81.8a39.43,39.43,0,0,0,9,2.31,18.84,18.84,0,0,0,15.49-3.79l.75-50.55s43.53,26.89,59.06,24.65c17.38-2.5,45.34-16.76,26.45-49.83S618.46,320,618.46,320Z" transform="translate(-85.91)" style="isolation:isolate"/><path fill="#68e1fd" d="M586.46,231.08s-11.34,36.1-14.4,43.84-56.68,14.18-56.68,14.18l2,23.17,61.06-7.58,18.36-26.55Z" transform="translate(-85.91)"/><path fill="url(#c)" d="M586.46,231.08s-11.34,36.1-14.4,43.84-56.68,14.18-56.68,14.18l2,23.17,61.06-7.58,18.36-26.55Z" opacity=".61" transform="translate(-85.91)"/><path fill="#68e1fd" d="M617,219.1l12.43,6.9c23.09,10.31,31.51,33.26,44.43,94.5,0,0-10.92,24.42-51.12,8,0,0-27.28-39.86-31.78-54.8s-15.83-40.65,5-50.48S617,219.1,617,219.1Z" transform="translate(-85.91)"/><path fill="#000405" d="M643.65,271.68l15.14,57.13s-15.45,9.42-36.1-.34-13.34-19.47-20-31.33l20.23-11Z" opacity=".05" transform="translate(-85.91)"/><path fill="#333" d="M615.25,216.63a14.11,14.11,0,0,1-19.31,6.6s-11.68,20.37,5,17.94c8.84-1.29,16.58-14.45,18.06-21.12Z" transform="translate(-85.91)"/><path fill="url(#b)" d="M616,200.29c0,.23-.53,10.28-.94,17.52a22.26,22.26,0,0,1-6.73,14.79,24.74,24.74,0,0,1-8.24,5.65,4.33,4.33,0,0,1-4.44-.87,4.38,4.38,0,0,1-1.26-4.37c.4-1.51.8-3.25,1.12-5.07.66-3.78,1-7.87-.07-10.76a3,3,0,0,0-.11-.32c-.6-1.49,0-3.12,1.41-4.76,1.94-2.3,5.34-4.63,8.74-6.6A104,104,0,0,1,616,200.29Z" transform="translate(-85.91)"/><path fill="url(#f)" d="M597.74,227.17a9.06,9.06,0,0,1-2.19.77c.66-3.78,1-7.87-.07-10.76l1.3-5.08,1-3.78,7.78-2.82,7.87-2.85C611.47,216.63,604,224.24,597.74,227.17Z" transform="translate(-85.91)"/><path fill="url(#g)" d="M595.75,160.47a22.36,22.36,0,0,0-20.86,25.33A75.79,75.79,0,0,0,581.77,212c7.29,12.44,25.69,2.2,28.6-2.92s13.91-28.29,9.3-34.88C616.65,169.72,607.69,160,595.75,160.47Z" transform="translate(-85.91)"/><path fill="#333" d="M576.33,151.67l3.78,1.94a14.22,14.22,0,0,0-11.68,5.65,18.69,18.69,0,0,0-5.48,13l6.43-3s-.49,7.92,11.67,8.53,25.05,1.1,25.05,1.1L602,173.17s7.55,3,8.88,5.84a93.13,93.13,0,0,1,2.56,13.66s3-7.82,4.27-6.11-1.32,8.8-2.91,10.35-1.32,6.22-1.47,6.6,7.56-6,7.9-8.19,8-24.38,3-29l3-.22a14.21,14.21,0,0,0-6-2.32S601.34,137.49,576.33,151.67Z" transform="translate(-85.91)"/><path fill="url(#h)" d="M515.31,292A68.36,68.36,0,0,1,504,289a92.23,92.23,0,0,0-18-2.81s-1.17,4,2,4.82,6.8,2.16,6.8,2.16l-13.22,1.33-12.24,1.67s1.17,4,4.46,4a15.15,15.15,0,0,0,3.77,4.47,60.42,60.42,0,0,1,6.46,6.83,37.2,37.2,0,0,0,5.29,3.49c.68,0,26.45-3,28-5.46Z" transform="translate(-85.91)"/><path fill="#68e1fd" d="M622.81,328.5s4,19.91,9.93,24.92c0,0-38.88,30.34-40.69,52.29C589.52,436.05,685.19,389,685.19,389l-6.62-16.76-41.48,18.39s25.24-17.06,37.78-34.13c9.86-13.54,4.5-26-1-35.68C673.81,320.5,650,340.18,622.81,328.5Z" transform="translate(-85.91)"/><path fill="url(#i)" d="M622.81,328.5s4,19.91,9.93,24.92c0,0-38.88,30.34-40.69,52.29C589.52,436.05,685.19,389,685.19,389l-6.62-16.76-41.48,18.39s25.24-17.06,37.78-34.13c9.86-13.54,4.5-26-1-35.68C673.81,320.5,650,340.18,622.81,328.5Z" transform="translate(-85.91)" style="isolation:isolate"/><polygon fill="url(#j)" points="592.55 372.23 599.73 369.76 603.28 379.17 595.35 384.59 592.55 372.23"/><path fill="url(#k)" d="M572.89,404l-.68-4.17a20.47,20.47,0,0,0,15.49-3.79l.42,6.83A16.42,16.42,0,0,1,572.89,404Z" transform="translate(-85.91)"/><path fill="#333" d="M572.74 402.72l-17 6.14s-9.45-2.31-11.34 3a11.44 11.44 0 00-.34 8.64s4.46 4 15.57 1.67 29.28-8 29.28-8l-.68-11.11A17.82 17.82 0 01572.74 402.72zM687 367.6s-4.27 1.75-3.78 2.88 2-1.36 5.82 8.73L686.59 381l5.28 11.37a10.4 10.4 0 00-4.11 9.14c.53 2.77 5.44 3.15 9.37 1.79s5.63-10.09 5.63-10.09-2.57-20.93-7.86-24.42S687 367.6 687 367.6z" transform="translate(-85.91)"/><path fill="#68e1fd" d="M558.8,346.33l-80.26,25.29-36.8-30.56c-14.85,15.16-32.68,3.79-30.23-5.09s18.9-5.65,18.9-5.65l-22.3-18.73,41.72-10.5c.26,1.47,2,8.6,12.13,9.17,11.33.65,13.9-8.57,4.49-13.08l26.45-6.86Z" transform="translate(-85.91)"/><path fill="#000405" d="M537.36,336.4a4.89,4.89,0,0,0-1.53.72,8.3,8.3,0,0,0-1.14,1.36c-1.48,1.84-3.89,2.57-6.08,3.44a33.49,33.49,0,0,0-7,3.78,1.7,1.7,0,0,0-.73.82c-.33,1.07,1.33,1.6,1.89,2.57a2.07,2.07,0,0,1-.34,2.23,6.72,6.72,0,0,1-1.89,1.44,34.85,34.85,0,0,0-9.8,8.94,240.3,240.3,0,0,1,37.7-15.7,7.6,7.6,0,0,0,2.79-1.34,2.54,2.54,0,0,0,.85-2.79c-.22-.49.55-.62.15-1-1.95-1.74-5.23-4.65-7.84-6.78C544.43,334.11,539.41,335.72,537.36,336.4Z" opacity=".05" transform="translate(-85.91)"/><path fill="#68e1fd" d="M644,236.81a12.33,12.33,0,0,0-21.15,4.25c-.72,2.31-1.48,5.08-2.23,8.49-4,18.43-22.11,58.51-22.11,58.51l-52.59,28.41,14.39,18.43,61.55-30.34s27.28-60.26,26.79-71.75A26.94,26.94,0,0,0,644,236.81Z" transform="translate(-85.91)"/><path fill="url(#l)" d="M644,236.81a12.33,12.33,0,0,0-21.15,4.25c-.72,2.31-1.48,5.08-2.23,8.49-4,18.43-22.11,58.51-22.11,58.51l-52.59,28.41,14.39,18.43,61.55-30.34s27.28-60.26,26.79-71.75A26.94,26.94,0,0,0,644,236.81Z" opacity=".61" transform="translate(-85.91)"/><path fill="url(#m)" d="M550.41,339.05a69.14,69.14,0,0,1-11.6,2.08,92.71,92.71,0,0,0-17.53,5s.6,4.1,3.78,3.53,7.06-.83,7.06-.83l-11.33,6.79-10.43,6.67s2.72,3.15,5.7,1.74a15.09,15.09,0,0,0,5.33,2.47,61.39,61.39,0,0,1,8.69,3.45,37,37,0,0,0,6.27.95c.61-.27,22.94-13.92,23.09-16.76Z" transform="translate(-85.91)"/><path fill="#3f3d56" d="M374.67,331.73l19.2,7.58v11.38s-23,.49-23,10.46,21.69,17.79,36.23,4.48l33.1,19L439,394.37,338.36,430.78,280.7,360.43V349.06Z" transform="translate(-85.91)"/><path fill="#68e1fd" d="M374.67,320.5l19.2,18.77s-23,.5-23,10.47,21.69,17.79,36.23,4.47l33.1,30.34L339.42,420.09,280.7,349.25l39.56-12.1s-12.58-8.46-.49-14.11a19.36,19.36,0,0,1,7.14-1.93c9.49-.38,11,4.51,12.25,9.86v.42Z" transform="translate(-85.91)"/><path fill="#000405" d="M296.69,344.36h0s16,34.78,23.61,40.55c4.24,3.22,33.55,12.78,58.44,14.13,2.33.13,9.61-6.62,13.05-5.73,5,1.31-.91,5.8.25,5.86,15,.71,23.31-5.86,23.31-5.86l-79,28.52-52.93-75.9Z" opacity=".05" transform="translate(-85.91)"/><path fill="url(#n)" d="M373.77,406.62a58.83,58.83,0,0,1,9.14-9.52,35.91,35.91,0,0,1,8.88-3.79s1.4,4.25-1,5.05-3.78,5-3.78,5,17.46,3.34,19.57,2.31,2.31,2.24-1.81,2.85-4,6.52-6.8,7-6.95,3.15-11.07,4.14A54.25,54.25,0,0,1,372.6,419Z" transform="translate(-85.91)"/><path fill="#68e1fd" d="M293.66,356.15A62.21,62.21,0,0,0,265.21,292a29.47,29.47,0,0,0-12.69-4.89c-18.29-1.06-37.79,131.1-37.79,131.1s8.81,25.6,35.48,28.06c24.64,2.28,29.44-12.55,29.44-12.55Z" transform="translate(-85.91)"/><path fill="url(#o)" d="M293.66,356.15A62.21,62.21,0,0,0,265.21,292a29.47,29.47,0,0,0-12.69-4.89c-18.29-1.06-37.79,131.1-37.79,131.1s8.81,25.6,35.48,28.06c24.64,2.28,29.44-12.55,29.44-12.55Z" opacity=".61" transform="translate(-85.91)"/><path fill="url(#p)" d="M252.52,287.09s2.68-19.94,3.78-32.91,5.36-30.34,27.13-28.07,21.76,35.2,15.71,49-14.09,13.35-14.09,13.35-10.84-2.39-10.47,10.66Z" transform="translate(-85.91)"/><path fill="#333" d="M260.75,223.31a24.52,24.52,0,0,0-6.65,11.11,59.5,59.5,0,0,0-2,10.5l2.23-2.42a163,163,0,0,1-1.4,18.2,98.54,98.54,0,0,0-1,17l4.05-.19,5,6.26,5.63-3.8,4.23-2.23,3.78-9.3a5.24,5.24,0,0,1-1.81-6.06c1.4-3.79,4.83-4.67,5.63-2.43a43.39,43.39,0,0,1,1,8.49l6-17s3.78-5.28,7.07-1.63a17.59,17.59,0,0,0,7.25,4.85l-2-5.69,5.44,1.4-.42-6.48,4.05,2.84s1.81-10.5-1.63-15.17S288.19,208.33,260.75,223.31Z" transform="translate(-85.91)"/><path fill="#68e1fd" d="M374.33,403.25l-44.54-4.82a29.31,29.31,0,0,1-23.51-24.8l-16.47-50.25a17.7,17.7,0,0,0-14.21-12.17,15.41,15.41,0,0,0-17,19.8l17,60.67a29.29,29.29,0,0,0,26.45,25.67l69.83,9.11Z" transform="translate(-85.91)"/><path fill="url(#q)" d="M374.33,403.25l-44.54-4.82a29.31,29.31,0,0,1-23.51-24.8l-16.47-50.25a17.7,17.7,0,0,0-14.21-12.17,15.41,15.41,0,0,0-17,19.8l17,60.67a29.29,29.29,0,0,0,26.45,25.67l69.83,9.11Z" opacity=".61" transform="translate(-85.91)"/><path fill="url(#r)" d="M264.38,477l-13.11,3,5.25,15.17L270.24,492S273.87,480.27,264.38,477Z" transform="translate(-85.91)"/><path fill="#333" d="M245.94,477.8s8.58-1.82,10,1.1-3.14,2.73-2.23,6.87a83.59,83.59,0,0,0,2.83,9.29l4.23-.95.87,5a3.8,3.8,0,0,0,3.78,3c9.9.57,8.58,9.55,5.1,9.89l-12.81.95-6.76-5.65a5.38,5.38,0,0,1-1.85-2.24C246.59,500.21,239,482.16,245.94,477.8Z" transform="translate(-85.91)"/><path fill="#68e1fd" d="M454.32,168.55a19.25,19.25,0,0,0-1.7,3c-2.87,6.14-12.58,28.1-14,47.13a18.93,18.93,0,0,1-17.84,17.75l-17.34,1-5.67.3a18.9,18.9,0,0,1-19.65-15.17c-3.55-17.52-11.11-44.29-25.8-56.12,0,0-64.77-59.31-21.58-125.45a102.74,102.74,0,0,1,9.71-12.67C385.78-21.86,460.6,1,478.58,47.61S461.47,158.5,454.32,168.55Z" opacity=".4" transform="translate(-85.91)"/><path fill="#68e1fd" d="M441.1,244.62c-1.51,3.79-3.25,5.61-1.74,8.12S445.22,262,423.15,265a120.12,120.12,0,0,1-13.79,1.1h-7.22l-4.23-.19c-4.83-.3-8.73-.79-11.33-1.21a10.17,10.17,0,0,1-7-4.44,5.25,5.25,0,0,1,.8-5.46,2.92,2.92,0,0,0-.91-4.85,6.28,6.28,0,0,1-.38-8.76,7.15,7.15,0,0,0,1.33-1.9,6.49,6.49,0,0,0-.87-6.64l-.61-.75a11,11,0,0,1-1.81-3.8,5.68,5.68,0,0,1,.91-5.68,18.89,18.89,0,0,0,19.64,15.16l5.67-.34a3.09,3.09,0,0,0,.38-.72c1-2.42-1.25-5.23-.11-9l4.26-.19a118.19,118.19,0,0,0,30.76-6,6.13,6.13,0,0,1,1.51,7.59,9.42,9.42,0,0,0-.79,2.65,9.61,9.61,0,0,0,.94,5.61,5.07,5.07,0,0,0,.34.61A7.6,7.6,0,0,1,441.1,244.62Z" transform="translate(-85.91)"/><path fill="#333" d="M378.08,222.4a129.62,129.62,0,0,1,60.45-1.1S405.77,234.72,378.08,222.4Z" transform="translate(-85.91)"/><path fill="url(#s)" d="M407.09,265.74a19.8,19.8,0,0,1-5,.34l-4.24-.19c-4.83-.3-8.72-.79-11.33-1.21a10.16,10.16,0,0,1-7-4.44,5.24,5.24,0,0,1,.79-5.46,2.94,2.94,0,0,0,.88-2.68,2.91,2.91,0,0,0-1.79-2.17,6.27,6.27,0,0,1-.37-8.76,6.39,6.39,0,0,0,.45-8.53,11.37,11.37,0,0,1-2.34-4.52,5.7,5.7,0,0,1,.9-5.68,74.35,74.35,0,0,0,29.74,4.85l.49.23s-3.78,1.44-2.8,4.74,2.42,9.25-.83,13.12,3,4.93,1.82,9.29v.42a24.74,24.74,0,0,0-1.1,4C404.68,262.52,405,265.44,407.09,265.74Z" transform="translate(-85.91)" style="isolation:isolate"/><path fill="#fff" d="M407.85,227.25a74.15,74.15,0,0,1-29.77-4.85c-3.52-17.41-11.08-44.18-25.77-56,0,0-64.77-59.31-21.58-125.45a102.74,102.74,0,0,1,9.71-12.67l5.82-.53S385,7.34,401.43,29.68,382,77.27,380.12,118.07,424.93,166.42,407.85,227.25Z" opacity=".49" transform="translate(-85.91)" style="isolation:isolate"/><path fill="url(#t)" d="M436,255.12c-2.8,1.82-12.85,5.24-30.76,4a131.35,131.35,0,0,1-24.82-4.4,2.92,2.92,0,0,0-.91-4.85,87.87,87.87,0,0,0,27,4.74,102.11,102.11,0,0,0,30.56-3.79S440.19,252.39,436,255.12Z" transform="translate(-85.91)" style="isolation:isolate"/><path fill="url(#u)" d="M440.27,237.22c-3.36,2.81-16.06,8-34.42,6.22a101.1,101.1,0,0,1-25.43-4.21,6.47,6.47,0,0,0-.87-6.63l-.61-.76c1.21.46,3.25,1.1,6,1.82a106,106,0,0,0,18.9,3h2.94a84.25,84.25,0,0,0,32.61-5.16A9.57,9.57,0,0,0,440.27,237.22Z" transform="translate(-85.91)" style="isolation:isolate"/><path fill="#3f3d56" d="M314.52,328.81l.23,10,5.55-1.71S314.52,333.09,314.52,328.81Z" transform="translate(-85.91)"/><path fill="#fff" d="M436.17,126.13l-1.21-.82a41.45,41.45,0,0,0,1.89-17.13c-1.44-12.24-10.08-19.71-24.3-21-21.8-2.07-30.43,9.18-33.63,16.06-9.24,19.23-.88,50.37,12.44,64.34,16.42,17.14,10.08,49.46,7.76,59a3.48,3.48,0,0,0-.15.72v.64l3.35,1.14.24-.94A109.45,109.45,0,0,0,406,204.79c.59-17-3.48-30.75-11.81-39.75-12.3-12.89-20.29-42.65-11.8-60.26,5.15-10.55,15.54-15.41,30.07-14.06,15.81,1.5,20.18,10.57,21.06,17.88a37.73,37.73,0,0,1-1.65,14.85,16.5,16.5,0,0,0-11.42-1.28c-7.49,2.06-12.22,9.82-14.87,15.94a8.53,8.53,0,0,0,1.57,9.21,8.45,8.45,0,0,0,8.86,2.27c6.75-2.39,13.79-10.67,17.75-20.77l.39.27c11,7.74,3.15,19.67-5.88,33.5-6.43,9.69-14.41,21.75-15.27,33.63-1,10.64-.54,19.05.18,29.76l.05.85h3.6l-.05-1c-.7-10.69-1.12-19-.18-29.34.77-10.88,8.12-22.07,14.6-32l.29-.45C440.9,149.61,449.78,135.91,436.17,126.13Zm-21.44,20a4.67,4.67,0,0,1-5-1.31,4.88,4.88,0,0,1-.9-5.33c1.9-4.41,6.06-12.1,12.53-13.9a10.75,10.75,0,0,1,2.84-.38,15.06,15.06,0,0,1,6.34,1.64C426.77,136.38,420.36,144.25,414.73,146.15Zm18.13-20.09v0l.16.11Z" transform="translate(-85.91)"/></svg>